<mxfile host="Electron" modified="2024-03-27T08:52:08.044Z" agent="Mozilla/5.0 (Windows NT 10.0; Win64; x64) AppleWebKit/537.36 (KHTML, like Gecko) draw.io/24.0.4 Chrome/120.0.6099.109 Electron/28.1.0 Safari/537.36" etag="9uOFlLDsUSOHyYzsBXq8" version="24.0.4" type="device">
  <diagram name="Page-1" id="Lhtt1G_6FQc8d_RRvDjJ">
    <mxGraphModel dx="1195" dy="-503" grid="0" gridSize="10" guides="1" tooltips="1" connect="1" arrows="1" fold="1" page="0" pageScale="1" pageWidth="850" pageHeight="1100" background="#ffffff" math="0" shadow="0">
      <root>
        <mxCell id="0" />
        <mxCell id="1" parent="0" />
        <UserObject label="" tags="Background" id="-Rc1ZKmh6QWSi9Eiux85-1">
          <mxCell style="vsdxID=7164;rotation=270;fillColor=#0070c0;gradientColor=none;shape=stencil(nZBLDoAgDERP0z3SIyjew0SURgSD+Lu9kMZoXLhwN9O+tukAlrNpJg1SzDH4QW/URgNYgZTkjA4UkwJUgGXng+6DX1zLfmoymdXo17xh5zmRJ6Q42BWCfc2oJfdAr+Yv+AP9Cb7OJ3H/2JG1HNGz/84klThPVCc=);strokeColor=none;points=[];labelBackgroundColor=none;rounded=0;html=1;whiteSpace=wrap;" vertex="1" parent="1">
            <mxGeometry x="407" y="1298" width="240" height="180" as="geometry" />
          </mxCell>
        </UserObject>
        <UserObject label="" tags="Background" id="-Rc1ZKmh6QWSi9Eiux85-2">
          <mxCell style="vsdxID=7192;rotation=270;fillColor=#41719c;gradientColor=none;shape=stencil(nZBLDoAgDERP0z3SIyjew0SURgSD+Lu9kMZoXLhwN9O+tukAlrNpJg1SzDH4QW/URgNYgZTkjA4UkwJUgGXng+6DX1zLfmoymdXo17xh5zmRJ6Q42BWCfc2oJfdAr+Yv+AP9Cb7OJ3H/2JG1HNGz/84klThPVCc=);strokeColor=none;points=[];labelBackgroundColor=none;rounded=0;html=1;whiteSpace=wrap;" vertex="1" parent="1">
            <mxGeometry x="57" y="1328" width="240" height="120" as="geometry" />
          </mxCell>
        </UserObject>
        <UserObject label="&lt;div style=&quot;font-size: 1px&quot;&gt;&lt;font style=&quot;font-size:14.11px;font-family:Segoe UI Semibold;color:#ffffff;direction:ltr;letter-spacing:0px;line-height:120%;opacity:1&quot;&gt;&lt;b&gt;Virtual Network&lt;br/&gt;&lt;/b&gt;&lt;/font&gt;&lt;/div&gt;" tags="Background" id="-Rc1ZKmh6QWSi9Eiux85-3">
          <mxCell style="verticalAlign=middle;align=center;overflow=width;vsdxID=7193;fillColor=none;gradientColor=none;shape=stencil(nZBLDoAgDERP0z3SIyjew0SURgSD+Lu9kMZoXLhwN9O+tukAlrNpJg1SzDH4QW/URgNYgZTkjA4UkwJUgGXng+6DX1zLfmoymdXo17xh5zmRJ6Q42BWCfc2oJfdAr+Yv+AP9Cb7OJ3H/2JG1HNGz/84klThPVCc=);strokeColor=none;points=[];labelBackgroundColor=none;rounded=0;html=1;whiteSpace=wrap;" vertex="1" parent="1">
            <mxGeometry x="117" y="1418" width="120" height="20" as="geometry" />
          </mxCell>
        </UserObject>
        <UserObject label="&lt;div style=&quot;font-size: 1px&quot;&gt;&lt;p style=&quot;text-align:right;margin-left:0;margin-right:0;margin-top:0px;margin-bottom:0px;text-indent:0;vertical-align:middle;direction:ltr;&quot;&gt;&lt;/p&gt;&lt;/div&gt;" tags="Background" id="-Rc1ZKmh6QWSi9Eiux85-4">
          <mxCell style="verticalAlign=middle;align=right;overflow=width;vsdxID=7212;fillColor=#41719c;gradientColor=none;shape=stencil(nZBLDoAgDERP0z3SIyjew0SURgSD+Lu9kMZoXLhwN9O+tukAlrNpJg1SzDH4QW/URgNYgZTkjA4UkwJUgGXng+6DX1zLfmoymdXo17xh5zmRJ6Q42BWCfc2oJfdAr+Yv+AP9Cb7OJ3H/2JG1HNGz/84klThPVCc=);strokeColor=none;points=[];labelBackgroundColor=none;rounded=0;html=1;whiteSpace=wrap;" vertex="1" parent="1">
            <mxGeometry x="277" y="1288" width="119" height="80" as="geometry" />
          </mxCell>
        </UserObject>
        <UserObject label="&lt;div style=&quot;font-size: 1px&quot;&gt;&lt;/div&gt;" tags="Background" id="-Rc1ZKmh6QWSi9Eiux85-5">
          <mxCell style="verticalAlign=middle;align=center;overflow=width;vsdxID=7213;fillColor=#41719c;gradientColor=none;shape=stencil(nZBLDoAgDERP0z3SIyjew0SURgSD+Lu9kMZoXLhwN9O+tukAlrNpJg1SzDH4QW/URgNYgZTkjA4UkwJUgGXng+6DX1zLfmoymdXo17xh5zmRJ6Q42BWCfc2oJfdAr+Yv+AP9Cb7OJ3H/2JG1HNGz/84klThPVCc=);strokeColor=none;points=[];labelBackgroundColor=none;rounded=0;html=1;whiteSpace=wrap;" vertex="1" parent="1">
            <mxGeometry x="277" y="1408" width="119" height="80" as="geometry" />
          </mxCell>
        </UserObject>
        <UserObject label="" tags="Background" id="-Rc1ZKmh6QWSi9Eiux85-6">
          <mxCell style="vsdxID=7227;fillColor=none;gradientColor=none;strokeColor=none;spacingTop=-3;spacingBottom=-3;spacingLeft=-3;spacingRight=-3;points=[];labelBackgroundColor=none;rounded=0;html=1;whiteSpace=wrap;" vertex="1" parent="1">
            <mxGeometry x="286" y="1303" width="40" height="44" as="geometry" />
          </mxCell>
        </UserObject>
        <mxCell id="-Rc1ZKmh6QWSi9Eiux85-7" style="vsdxID=7228;fillColor=none;gradientColor=none;strokeColor=none;spacingTop=-3;spacingBottom=-3;spacingLeft=-3;spacingRight=-3;points=[];labelBackgroundColor=none;rounded=0;html=1;whiteSpace=wrap;" vertex="1" parent="-Rc1ZKmh6QWSi9Eiux85-6">
          <mxGeometry width="40" height="44" as="geometry" />
        </mxCell>
        <mxCell id="-Rc1ZKmh6QWSi9Eiux85-8" style="vsdxID=7229;fillColor=#b796f9;gradientColor=none;shape=stencil(lZLZDoMgEEW/htcJi4A8W/sfJmIltWLUbn9fKCGVJtj0bZZzyZ1hEKuWvpk0onhZZ3vWd9OuPWIHRKkZez2b1UWI1YhVnZ31abbXsQ351HjSRxd78y88gk4RkMSrKH6GCn5nxwAPZtzAggJXCSwFSJoXMAJlwjMMVOR5nMDOGynysASeOlcKSrJjhoIQiYATEOXOuEVsRwHBO9uJzQgLUDxP/7X4H7ALPv/bmWEI57Htf9+DK4VbYvUL);strokeColor=none;strokeWidth=48;spacingTop=-3;spacingBottom=-3;spacingLeft=-3;spacingRight=-3;points=[];labelBackgroundColor=none;rounded=0;html=1;whiteSpace=wrap;" vertex="1" parent="-Rc1ZKmh6QWSi9Eiux85-7">
          <mxGeometry x="1" y="2" width="35" height="24" as="geometry" />
        </mxCell>
        <mxCell id="-Rc1ZKmh6QWSi9Eiux85-9" style="vsdxID=7230;fillColor=#b77af4;gradientColor=#7f42df;shape=stencil(vZXbcoMgEIafxksZDqJwnabvwTSoTK06aJvk7YuFabp1xMRxcod78t/90E3YYahVrxOKh9F27/psTmOdsJeEUtPW2prRnRJ2TNih7KyubPfZnvxzr6bI6fTRfU0VLj4vY4hOSRRfgyFDkv1YXn28sm/Oa0M8wUhwn2BDBuEIB1MIYhTRDFSlEskixKTqYobUdqMaTdd6P/a+RtlKp+6NadmoKpT3ruGsdT8zL2os5hoF0Bhp/GGJ+A6JjWkfGjvElBOUS5CQF4jL6AzkbASEghEUFOUcFBUU8WxXTDiOKZ9jKoDGWON7cQIaIac75g5BCYkwvPrxCaxCIhiDcsRdFL6t/W2IxByRBAqXWn4CnpVpQzQOnACxRYZI/DeyTkf8fjDXm6SN13MvPgR+5cttP4HQ+tDd4bacStM0frf99f9fZs7kFyE7fgM=);strokeColor=none;strokeWidth=48;spacingTop=-3;spacingBottom=-3;spacingLeft=-3;spacingRight=-3;points=[];labelBackgroundColor=none;rounded=0;html=1;whiteSpace=wrap;" vertex="1" parent="-Rc1ZKmh6QWSi9Eiux85-7">
          <mxGeometry width="39" height="28" as="geometry" />
        </mxCell>
        <mxCell id="-Rc1ZKmh6QWSi9Eiux85-10" style="vsdxID=7231;fillColor=#0078d4;gradientColor=none;shape=stencil(vVNRDoIwDD3NPiFjS0S+Ee+xyIDFuZEyBW7v5lARJCaS8Ne+tmtfu4do2lSs5ojgxoA+81bkpkL0gAgRquIgjLUQzRBNCw28BH1Vufdr5jKdddE390Ln67CrILj3XrILSfxAjj6ZwclGYUiOcJgkvgCGChrG1CPznP6JDE26gHWiCUAbZoRWHwNIBiUPbLugkKz8CDUt5/UMHgaUQo3Y7JMQR1+br+CztKIN+Eybv6b7m858Q5sdZ/4zVp5mYTcbUPmhGmu89VYIKb1cx/GpPi3ktU2zOw==);strokeColor=none;strokeWidth=48;spacingTop=-3;spacingBottom=-3;spacingLeft=-3;spacingRight=-3;points=[];labelBackgroundColor=none;rounded=0;html=1;whiteSpace=wrap;" vertex="1" parent="-Rc1ZKmh6QWSi9Eiux85-7">
          <mxGeometry x="10" y="24" width="6" height="19" as="geometry" />
        </mxCell>
        <mxCell id="-Rc1ZKmh6QWSi9Eiux85-11" style="vsdxID=7232;fillColor=#005ba1;gradientColor=none;shape=stencil(vVPbDoIwDP2aPULGplGeEf9jkQGLcyNlCvy9m8MLIDGRhLf2tF172h1Ek7pkFUcE1wb0mTciMyWiB0SIUCUHYayFaIpokmvgBeiryrxfMZfprIu+uRdaX4ddBcGd9+JNSOIHcvTJDE42Cn1yhMPYhzH0FdtwF3lkmtM9kb5JG7BW1AFow4zQajCAZFDwwLYLcsmKQahuOK8mcD+gFOqDzT4OcfS1+QI+cytagc+4+Wu6v+lMN7TacaY/Y+FpZnazApUfqrHGW2+5kNLL9TM+1qeFvLZpegc=);strokeColor=none;strokeWidth=48;spacingTop=-3;spacingBottom=-3;spacingLeft=-3;spacingRight=-3;points=[];labelBackgroundColor=none;rounded=0;html=1;whiteSpace=wrap;" vertex="1" parent="-Rc1ZKmh6QWSi9Eiux85-7">
          <mxGeometry x="21" y="31" width="6" height="13" as="geometry" />
        </mxCell>
        <mxCell id="-Rc1ZKmh6QWSi9Eiux85-12" style="vsdxID=7233;fillColor=#005ba1;gradientColor=none;shape=stencil(vVNBDoMgEHwNRw3CoXq29h+kopJSMSut+vtiwVTF9mATb8vsrMMsDqJpW7GGI4JbDerGO5HrCtEzIkTUFQehTYVohmhaKOAlqEed23PDRuZY3dVz/EJv5/A4QfBgT8kpJG/gYrkMrqYJjhvhMEksH9wACWML+JRhQpxEH7BetAEozbRQ9UJeMih5YNSCQrJy0Wo7zhsPdveTop55iZMQR5vi++182c8Bbtba0932evG3c9jD+H/Ff8+yvZgDjPxOiyk+MSuElDal8/46lgaykabZCw==);strokeColor=none;strokeWidth=48;spacingTop=-3;spacingBottom=-3;spacingLeft=-3;spacingRight=-3;points=[];labelBackgroundColor=none;rounded=0;html=1;whiteSpace=wrap;" vertex="1" parent="-Rc1ZKmh6QWSi9Eiux85-7">
          <mxGeometry x="32" y="18" width="6" height="26" as="geometry" />
        </mxCell>
        <mxCell id="-Rc1ZKmh6QWSi9Eiux85-13" style="vsdxID=7234;fillColor=#5ea0ef;gradientColor=none;shape=stencil(vVPbDoIwDP2aPULGplGeEf9jkQGLcyNlCvy9m8MLIDGRhLf2tF172h1Ek7pkFUcE1wb0mTciMyWiB0SIUCUHYayFaIpokmvgBeiryrxfMZfprIu+uRdaX4ddBcGd9+JNSOIHcvTJDE42Cn1yhMPYhzH0FdtwF3lkmtM9kb5JG7BW1AFow4zQajCAZFDwwLYLcsmKQahuOK8mcD+gFOqDzT4OcfS1+QI+cytagc+4+Wu6v+lMN7TacaY/Y+FpZnazApUfqrHGW2+5kNLL9TM+1qeFvLZpegc=);strokeColor=none;strokeWidth=48;spacingTop=-3;spacingBottom=-3;spacingLeft=-3;spacingRight=-3;points=[];labelBackgroundColor=none;rounded=0;html=1;whiteSpace=wrap;" vertex="1" parent="-Rc1ZKmh6QWSi9Eiux85-7">
          <mxGeometry y="31" width="6" height="13" as="geometry" />
        </mxCell>
        <UserObject label="" tags="Background" id="-Rc1ZKmh6QWSi9Eiux85-14">
          <mxCell style="vsdxID=7240;fillColor=none;gradientColor=none;strokeColor=none;spacingTop=-3;spacingBottom=-3;spacingLeft=-3;spacingRight=-3;points=[];labelBackgroundColor=none;rounded=0;html=1;whiteSpace=wrap;" vertex="1" parent="1">
            <mxGeometry x="137" y="1348" width="76" height="45" as="geometry" />
          </mxCell>
        </UserObject>
        <mxCell id="-Rc1ZKmh6QWSi9Eiux85-15" style="vsdxID=7241;fillColor=none;gradientColor=none;strokeColor=none;spacingTop=-3;spacingBottom=-3;spacingLeft=-3;spacingRight=-3;points=[];labelBackgroundColor=none;rounded=0;html=1;whiteSpace=wrap;" vertex="1" parent="-Rc1ZKmh6QWSi9Eiux85-14">
          <mxGeometry width="76" height="45" as="geometry" />
        </mxCell>
        <mxCell id="-Rc1ZKmh6QWSi9Eiux85-16" style="vsdxID=7242;fillColor=#000000;gradientColor=#86d633;shape=stencil(vZTbcoMgEIafhksZhKDcp8l7MA0qUyrOShv79sViJ12tTW0zuVv2wP6738wSse8b3RnCWR/AP5mzPYWGiAfCuW0bAzZEi4gDEfvKg6nBv7Sn9O70mDlaz/51/GFIdTljYw1nb+ktFeXyw3NM6RoeYxQ+0zkVu1QAl4rJM+WokhYSfTq1GDI92D4DH3SwvkUxp6E2WWyWVU7XU7MU6s/GdAv3qjyxkCck0rc+8maF7BcKnW237Bvj2Smaz3b5bz4Fo3KuQf5xASuI2GZEBZL4w9i3YoQkYkbXl44hKVryGzPiOWXlHJK6J6OlQqGQxG+mvhuhqxuPxuXiVda5dDC/xucXMrrSdRWHdw==);strokeColor=none;strokeWidth=48;spacingTop=-3;spacingBottom=-3;spacingLeft=-3;spacingRight=-3;points=[];labelBackgroundColor=none;rounded=0;html=1;whiteSpace=wrap;" vertex="1" parent="-Rc1ZKmh6QWSi9Eiux85-15">
          <mxGeometry x="19" y="18" width="40" height="8" as="geometry" />
        </mxCell>
        <mxCell id="-Rc1ZKmh6QWSi9Eiux85-17" style="vsdxID=7243;fillColor=#50e6ff;gradientColor=none;shape=stencil(vVNBcsMgDHwNRzMg7Aaf0/QfTINtptR4MG2c3xdGsWOSOpNLexNa7YpFiIj92KlBE2Bj8O5Dn8wxdES8EgDTd9qbECMiDkTsG+d1691Xf8TzoFJlij7dd1KYkFdL+gKJBeyMGSlpiZk3JFjTrwgRZjkhSVRrgvLvEfUXQkl3Ndb785yZW86anEK1ocmmQk1mLLwLKhjXI84Qs8q3uoj9isaqNoPGk9bDKs23LQGVPOsOgoptQzWtZG6opiAyQ7B4vlRwtjj8ez9c0DLrzrZr40NX+VXjMOTu0ThvzN9N8xfJ5Uv9g/snfnQMrvvQGGtxndb47f7EFO6eOPwA);strokeColor=none;strokeWidth=48;spacingTop=-3;spacingBottom=-3;spacingLeft=-3;spacingRight=-3;points=[];labelBackgroundColor=none;rounded=0;html=1;whiteSpace=wrap;" vertex="1" parent="-Rc1ZKmh6QWSi9Eiux85-15">
          <mxGeometry y="18" width="26" height="27" as="geometry" />
        </mxCell>
        <mxCell id="-Rc1ZKmh6QWSi9Eiux85-18" style="vsdxID=7244;fillColor=#1490df;gradientColor=none;shape=stencil(vVPLcsMgDPwajtbwSHic0/Q/mAbbTKnxYNokfx8ITmuScXrLTeyupFkhIbabej0aRPEUg/80R3uIPWJviFI79CbYmCLE9ojtWh9MF/z3cCjvUWdljr78T65wKnlSgKA5i+JzQQhQdQXei97ZYaFXErai1hPgfJmgw0diw5ywAbkt+nC+IbP+SU0J9KZp9MlOTfBRR+uHwuPCOR0606R+Tet0V1HT0ZhxAZN1S4QBZ3V7jNfl9NfQrJYKuFwfgAJB6gEoYLQawENJwWGjXuVfYlB3G8DE0w/lDx8qKj95qVZKvsLPvyudgr97aK1z5ZyW/P39JKjcHttfAA==);strokeColor=none;strokeWidth=48;spacingTop=-3;spacingBottom=-3;spacingLeft=-3;spacingRight=-3;points=[];labelBackgroundColor=none;rounded=0;html=1;whiteSpace=wrap;" vertex="1" parent="-Rc1ZKmh6QWSi9Eiux85-15">
          <mxGeometry width="26" height="27" as="geometry" />
        </mxCell>
        <mxCell id="-Rc1ZKmh6QWSi9Eiux85-19" style="vsdxID=7245;fillColor=#50e6ff;gradientColor=none;shape=stencil(vZNBbsMgEEVPw9IjGBx7vE7Te6AG26jUWJg2ye2LS6JAJFftJrvhz+MPX2KY3C+jmjVDvgTv3vXJHMPI5AtDNNOovQmxYvLA5L53Xg/efU7HdJ7VSq7Vh/taHc7pHjXQrJeQX5LAf06vibVmytiuBSxYwQFlziv/Frv+xsOOEu8vNwXrpNwtBRWeKEFekUqdzVJ5F1Qwbsqfx63yg67iuKq3aihay0nrOZPFdiBB0LbF9I6g2W0nqqHtykQ1NFgkErhh+Iw8UBfDia7C38OIMsyjoQCiZ6X5z9f8nY3F/f/3xtq0Pnn/cV+ilHZNHr4B);strokeColor=none;strokeWidth=48;spacingTop=-3;spacingBottom=-3;spacingLeft=-3;spacingRight=-3;points=[];labelBackgroundColor=none;rounded=0;html=1;whiteSpace=wrap;" vertex="1" parent="-Rc1ZKmh6QWSi9Eiux85-15">
          <mxGeometry x="50" y="18" width="26" height="27" as="geometry" />
        </mxCell>
        <mxCell id="-Rc1ZKmh6QWSi9Eiux85-20" style="vsdxID=7246;fillColor=#1490df;gradientColor=none;shape=stencil(vVPLbsMgEPwajl7xsMCc0+Q/UINtVGosTBvn7wvBUaCqc6mU2zI7+xixg9hhGdWsEcVL8O5DX8w5jIi9IUrNNGpvQowQOyJ26J3Xg3df0zm/Z5WYKfp036nDmuukAJKKKL5moJPA5Q05Zb41U8HvOLC2KiAY79MJtLRmd8BoyVf+PWb9xm+h45nvr3eEb8huSwJiW2lt1GqWxruggnFTzuf1sFV+0E0c1/RWDVVquWg9FzB5IogCFfV4YPx/giQQ9nfLFwhKB1ALEhxatq9IgiC1Inn/0rJnrShdFXmlpOc3HYOHIXpjbfZTmf9toAhl87HjDw==);strokeColor=none;strokeWidth=48;spacingTop=-3;spacingBottom=-3;spacingLeft=-3;spacingRight=-3;points=[];labelBackgroundColor=none;rounded=0;html=1;whiteSpace=wrap;" vertex="1" parent="-Rc1ZKmh6QWSi9Eiux85-15">
          <mxGeometry x="50" width="26" height="27" as="geometry" />
        </mxCell>
        <UserObject label="&lt;div style=&quot;font-size: 1px&quot;&gt;&lt;font style=&quot;font-size:14.11px;font-family:Segoe UI Semibold;color:#ffffff;direction:ltr;letter-spacing:0px;line-height:120%;opacity:1&quot;&gt;&lt;b&gt;Metrics&lt;br/&gt;&lt;/b&gt;&lt;/font&gt;&lt;/div&gt;" tags="Background" id="-Rc1ZKmh6QWSi9Eiux85-21">
          <mxCell style="verticalAlign=middle;align=center;overflow=width;vsdxID=7248;fillColor=none;gradientColor=none;shape=stencil(nZBLDoAgDERP0z3SIyjew0SURgSD+Lu9kMZoXLhwN9O+tukAlrNpJg1SzDH4QW/URgNYgZTkjA4UkwJUgGXng+6DX1zLfmoymdXo17xh5zmRJ6Q42BWCfc2oJfdAr+Yv+AP9Cb7OJ3H/2JG1HNGz/84klThPVCc=);strokeColor=none;points=[];labelBackgroundColor=none;rounded=0;html=1;whiteSpace=wrap;" vertex="1" parent="1">
            <mxGeometry x="307" y="1318" width="110" height="20" as="geometry" />
          </mxCell>
        </UserObject>
        <UserObject label="&lt;div style=&quot;font-size: 1px&quot;&gt;&lt;font style=&quot;font-size:14.11px;font-family:Segoe UI Semibold;color:#ffffff;direction:ltr;letter-spacing:0px;line-height:120%;opacity:1&quot;&gt;&lt;b&gt;Logs&lt;br/&gt;&lt;/b&gt;&lt;/font&gt;&lt;/div&gt;" tags="Background" id="-Rc1ZKmh6QWSi9Eiux85-22">
          <mxCell style="verticalAlign=middle;align=center;overflow=width;vsdxID=7249;fillColor=none;gradientColor=none;shape=stencil(nZBLDoAgDERP0z3SIyjew0SURgSD+Lu9kMZoXLhwN9O+tukAlrNpJg1SzDH4QW/URgNYgZTkjA4UkwJUgGXng+6DX1zLfmoymdXo17xh5zmRJ6Q42BWCfc2oJfdAr+Yv+AP9Cb7OJ3H/2JG1HNGz/84klThPVCc=);strokeColor=none;points=[];labelBackgroundColor=none;rounded=0;html=1;whiteSpace=wrap;" vertex="1" parent="1">
            <mxGeometry x="302" y="1438" width="110" height="20" as="geometry" />
          </mxCell>
        </UserObject>
        <UserObject label="" tags="Background" id="-Rc1ZKmh6QWSi9Eiux85-23">
          <mxCell style="vsdxID=7496;fillColor=none;gradientColor=none;strokeColor=none;spacingTop=-3;spacingBottom=-3;spacingLeft=-3;spacingRight=-3;points=[];labelBackgroundColor=none;rounded=0;html=1;whiteSpace=wrap;" vertex="1" parent="1">
            <mxGeometry x="289" y="1423" width="40" height="48" as="geometry" />
          </mxCell>
        </UserObject>
        <mxCell id="-Rc1ZKmh6QWSi9Eiux85-24" style="vsdxID=7497;fillColor=none;gradientColor=none;strokeColor=none;spacingTop=-3;spacingBottom=-3;spacingLeft=-3;spacingRight=-3;points=[];labelBackgroundColor=none;rounded=0;html=1;whiteSpace=wrap;" vertex="1" parent="-Rc1ZKmh6QWSi9Eiux85-23">
          <mxGeometry width="40" height="48" as="geometry" />
        </mxCell>
        <mxCell id="-Rc1ZKmh6QWSi9Eiux85-25" style="vsdxID=7498;fillColor=#5e9624;gradientColor=none;shape=stencil(vVTLdoQgDP0alubwiArr6fQ/OB1UTq140Hamf18tdEbs6NJdSG643CSEiNPQ6N4QTofRu3dztZexIeKFcG67xng7ThYRZyJOlfOm9u6zu4Rzr2fkbH24r/mGW8hTAjCfszj9Dh76e3oN4NZ2CzBjUKhtsPZvU8RHMAJlAesjWICIVBEiIU+vY8BkRGT6ZofMu1GP1nVLNtpqX5tsYsuqVtdJaLga0/9zPxVDE2YFWG5jFQIXCV4q4LidICkwTKXRnbfI8i78OTwtbZ7WFR9Vi8+lgDyVp44qq5JQFCk3h5LtzQkr13OCqZ6/YtxvpAfOyZocQcqd1sBKDEJZpM3Z+HFH9Gb/s0/GY01Utm3DllnG12tlcoWVJM4/);strokeColor=none;strokeWidth=48;spacingTop=-3;spacingBottom=-3;spacingLeft=-3;spacingRight=-3;points=[];labelBackgroundColor=none;rounded=0;html=1;whiteSpace=wrap;" vertex="1" parent="-Rc1ZKmh6QWSi9Eiux85-24">
          <mxGeometry width="40" height="48" as="geometry" />
        </mxCell>
        <mxCell id="-Rc1ZKmh6QWSi9Eiux85-26" style="vsdxID=7499;fillColor=#FFFFFF;gradientColor=none;shape=stencil(vZNNbsMgEIVPw9Ij/uzAOk3ugRJso1JjYZI4ty8uVDFWs6qS3cy8D4YHA2L7qVejRhRPwbtPfTPn0CP2gSg1Q6+9CTFC7IDYvnVed95dhnPKR7WQS/TlrssOc1qHlxUU31PWABc/hWNirRlWbA2SFjgBwte48qco+oxzwEnFPvMMKEmVjAjYsWLHfJy5UrOZKu+CCsYNhWaV73QVW1WtVV0hTTetx1WZPPciaxD8j9ZPnJBm64QVRgguL/Khv9zJtrXEIOr/eJECmvJqZHy43bv8CAm8HIpfhxmPwWOaW2Nt+gxrfTv9sZR+Djt8Aw==);strokeColor=none;strokeWidth=48;spacingTop=-3;spacingBottom=-3;spacingLeft=-3;spacingRight=-3;points=[];labelBackgroundColor=none;rounded=0;html=1;whiteSpace=wrap;" vertex="1" parent="-Rc1ZKmh6QWSi9Eiux85-24">
          <mxGeometry x="2" y="1" width="35" height="45" as="geometry" />
        </mxCell>
        <mxCell id="-Rc1ZKmh6QWSi9Eiux85-27" style="vsdxID=7500;fillColor=#000000;gradientColor=#86d633;shape=stencil(xZTNEoIgEMefhqMMgVqezd6DKVQmEmeltLcPo1KyOtSM3fbjtyx/YEEsbUpeC0RJY0DvRSt3pkRsjSiVVSlAGmshliGW5hpEAfpY7Zxf857srYM+9St0ri6JcRL2VZScXYRcvY2DlaxGMMEfUA5bm4EBXTkW7jBmiYt042oyTQe8k00A2nAjdeXBikMhAtsqyBUvvFTTClFPwq91eJ2TJY7C90oYJrGvhOIw9pQMyI1YEDKXlukF3pt/q+ax+cn5zCDnuTnFEftJzbsH/per8WBrDFOZS6XcUI/zz1NsQ+4HYNkF);strokeColor=none;strokeWidth=48;spacingTop=-3;spacingBottom=-3;spacingLeft=-3;spacingRight=-3;points=[];labelBackgroundColor=none;rounded=0;html=1;whiteSpace=wrap;" vertex="1" parent="-Rc1ZKmh6QWSi9Eiux85-24">
          <mxGeometry y="4" width="35" height="44" as="geometry" />
        </mxCell>
        <mxCell id="-Rc1ZKmh6QWSi9Eiux85-28" style="vsdxID=7501;fillColor=#FFFFFF;gradientColor=none;shape=stencil(vVbJcsIwDP2aHNFYkpf43OU/Mm2ATFPCmHT7+5o6AUQwTDuFmy1r8bP0ZBV8t1lW67ogtelD91J/NM/9suD7gqhZLevQ9HFV8EPBd/Mu1IvQva2e035dbTW3q9fufevhM9mhUlsbUl9pTwYM/Ugek3oVnuJpGNQ1ICb9MBhY0El/9OgNlF74xBKcGXRm1WezmYWur/qmW6Xz4QZtFRb1LMabzdtqIY42H3W9noiHG7bN6gCQM8A2E/4kJARXSki0k4w+GZx8JQWMt0JkDaAR4bUGcnkDg4Dyvme8cwlYCmXLwGe8kwNVHj8wcd4ACTTLCAqMz2eEZDoYUFYYKnASnyVg/td8YB7PngOT6DnOXKCMpKAtQdnrFdevCT3BGyk21tf1qx8NUC58hs/eTwoIBSK04GUJR4ZrfStIscdaLQntwFPegD0oWfBj2z7N/9jASKgzjY9yusNocEdvjKDOUMDFpiERMJ/lAO4Ye9BkxyIffHqQOeG90fVJPf219uH/Spz833oL3lz62ONiPxTMm7ZNM8Xh+fEQEUVpAOGHbw==);strokeColor=none;strokeWidth=48;spacingTop=-3;spacingBottom=-3;spacingLeft=-3;spacingRight=-3;points=[];labelBackgroundColor=none;rounded=0;html=1;whiteSpace=wrap;" vertex="1" parent="-Rc1ZKmh6QWSi9Eiux85-24">
          <mxGeometry x="4" y="16" width="25" height="16" as="geometry" />
        </mxCell>
        <UserObject label="&lt;div style=&quot;font-size: 1px&quot;&gt;&lt;font style=&quot;font-size:14.11px;font-family:Segoe UI Semibold;color:#ffffff;direction:ltr;letter-spacing:0px;line-height:120%;opacity:1&quot;&gt;&lt;b&gt;Azure Sentinel&lt;br/&gt;&lt;/b&gt;&lt;/font&gt;&lt;/div&gt;" tags="Background" id="-Rc1ZKmh6QWSi9Eiux85-29">
          <mxCell style="verticalAlign=middle;align=center;overflow=width;vsdxID=7682;fillColor=none;gradientColor=none;shape=stencil(nZBLDoAgDERP0z3SIyjew0SURgSD+Lu9kMZoXLhwN9O+tukAlrNpJg1SzDH4QW/URgNYgZTkjA4UkwJUgGXng+6DX1zLfmoymdXo17xh5zmRJ6Q42BWCfc2oJfdAr+Yv+AP9Cb7OJ3H/2JG1HNGz/84klThPVCc=);strokeColor=none;points=[];labelBackgroundColor=none;rounded=0;html=1;whiteSpace=wrap;" vertex="1" parent="1">
            <mxGeometry x="437" y="1406" width="180" height="20" as="geometry" />
          </mxCell>
        </UserObject>
        <UserObject label="" tags="Background" id="-Rc1ZKmh6QWSi9Eiux85-30">
          <mxCell style="vsdxID=7683;fillColor=none;gradientColor=none;strokeColor=none;spacingTop=-3;spacingBottom=-3;spacingLeft=-3;spacingRight=-3;points=[];labelBackgroundColor=none;rounded=0;html=1;whiteSpace=wrap;" vertex="1" parent="1">
            <mxGeometry x="478" y="1348" width="45" height="55" as="geometry" />
          </mxCell>
        </UserObject>
        <mxCell id="-Rc1ZKmh6QWSi9Eiux85-31" style="vsdxID=7684;fillColor=#1b93eb;gradientColor=none;shape=stencil(vZRRb4QgDMc/jY8SoALH8+32PcgdKpnTC3o79+2Hg5tWM5cs2d7g39KWX5tmcOxrc7UZp/3guxd7d5ehzuAp49y1tfVuCKcMThkcy87byne39hLvVzN5TqfX7m2KMMZ3jNLpDafv8V5IIvWn8hzdzzcf/dn6QRIUECGjNPIoSUpEckqKFoQnH4iKYERDckqS1kSyZW7jz8HsU6lA6CE+8KlYTkSRoqbqD0QW6D9zTDrmZnR97rvBDK5roz19pjG+snnIl5eNqZCpv1t7Xchsjw5oojTms/g6R4EfbCaAmA3FXDY9aVy7aCFuICsIiD2IrNhA1Ahi4KxwSEaU/EeGxVwA+6qAMQyRK0yRrsZrxZDuZVSA01GcSop5VPm2oMf0ynn2YA3ut70I46vYN/39k2bg0fpxO4TDvFlK1zRxMS3t600UpLjF4PQB);strokeColor=none;strokeWidth=48;spacingTop=-3;spacingBottom=-3;spacingLeft=-3;spacingRight=-3;points=[];labelBackgroundColor=none;rounded=0;html=1;whiteSpace=wrap;" vertex="1" parent="-Rc1ZKmh6QWSi9Eiux85-30">
          <mxGeometry width="45" height="55" as="geometry" />
        </mxCell>
        <mxCell id="-Rc1ZKmh6QWSi9Eiux85-32" style="vsdxID=7685;fillColor=#1b93eb;gradientColor=none;shape=stencil(vZTNcoIwEMefhiM7yS4Ecrb6HhlFzZSCE7DSt29ogma1taf2Fv77/VtmM1oNR3NqMhTD6PrX5mJ34zGjlwzRdsfG2dG/MlpntNr3rjm4/tztwvfJzJ7z661/nzNMIU5r0DhHofgISqGg/hI2wX97diFAPkZEqSJQOkgTBkkJwMUrSroErKIXBamUoGT0omt6hWl947be7GK/BLIMAS72i1AuWeMANRAf6ZZTTLmZ7JC7fjSj7btgF8HWGndocl8v37fmwEzDpWlOiSyfESINFQeUjo4s8QInRUjcg77fS2u7ZI+CDSwLqPQziHGABKIiBhFB1zylhOo/GRLUxCH6DoTkEFFBUXGQgkMs/N+qOEjxrK7fQ1HyuoLXVOraxlLTd3b/Z2sFuuR1bwR/WsrDThbgMYF42DLWf7cS/oP9fij843Zl9rZtw5FK7fdXyUvhotH6Ew==);strokeColor=none;strokeWidth=48;spacingTop=-3;spacingBottom=-3;spacingLeft=-3;spacingRight=-3;points=[];labelBackgroundColor=none;rounded=0;html=1;whiteSpace=wrap;" vertex="1" parent="-Rc1ZKmh6QWSi9Eiux85-30">
          <mxGeometry x="2" y="2" width="41" height="51" as="geometry" />
        </mxCell>
        <mxCell id="-Rc1ZKmh6QWSi9Eiux85-33" style="vsdxID=7686;fillColor=#c3f1ff;gradientColor=none;shape=stencil(xZTbcoMgEIafhkt3OIjCdZq+B9OgMrXioGns2xcK00rSpL2Ik7tlD/DtzvIjtps6NWpE8TQ7+6pP5jB3iD0hSs3QaWdmbyG2R2zXWKdbZ4/DIZ5HFTKD9Wbfww1LrOM4lFD8EY8lB0K+PM8xW7kXH3Upm9bAy1jgUgXngGV0paS6BsKzWyUFljxLoRYzFc7OajZ2iPHE0CvX6sK/WDS9arPQdNJ6XLlvMJZQyRxRAhMZoSAgyoyQYHxXPrzm682wmrjkEGK/PH6tHXHRTp218w2fEoQEUW3XTs7HMdCzeXse4PlOPBDwHwMsoRaPWgcigFR3XQdKQWz9/24QBo1glxqRM16VnU0EIp/4X5LnjR+1bEzfR7Fdx8/V1buiMrP9Jw==);strokeColor=none;strokeWidth=48;spacingTop=-3;spacingBottom=-3;spacingLeft=-3;spacingRight=-3;points=[];labelBackgroundColor=none;rounded=0;html=1;whiteSpace=wrap;" vertex="1" parent="-Rc1ZKmh6QWSi9Eiux85-30">
          <mxGeometry x="5" y="12" width="34" height="17" as="geometry" />
        </mxCell>
        <mxCell id="-Rc1ZKmh6QWSi9Eiux85-34" style="vsdxID=7687;fillColor=#FFFFFF;gradientColor=none;shape=stencil(vVHLDsIgEPwajiQI6RfU+h8bu22JCGRB2/69kG1iazx58DazM/vIjjBtmiCi0CplCjecbZ8nYc5Ca+snJJsLEqYTph0C4Ujh4XvmEaqzont41gkL96naodXKrGF6YSfQtUi0OXXDVlqPfJNP6usotUhYbJIUMmQb/GGrAxpRljVycDBuc1hKM2LclX8/7H9nFfB+82Cd45T2+mcspcSRmu4F);strokeColor=none;strokeWidth=48;spacingTop=-3;spacingBottom=-3;spacingLeft=-3;spacingRight=-3;points=[];labelBackgroundColor=none;rounded=0;html=1;whiteSpace=wrap;" vertex="1" parent="-Rc1ZKmh6QWSi9Eiux85-30">
          <mxGeometry x="16" y="22" width="12" height="12" as="geometry" />
        </mxCell>
        <UserObject label="" tags="Background" id="-Rc1ZKmh6QWSi9Eiux85-35">
          <mxCell style="vsdxID=7688;fillColor=none;gradientColor=none;strokeColor=none;spacingTop=-3;spacingBottom=-3;spacingLeft=-3;spacingRight=-3;points=[];labelBackgroundColor=none;rounded=0;html=1;whiteSpace=wrap;" vertex="1" parent="1">
            <mxGeometry x="535" y="1350" width="51" height="51" as="geometry" />
          </mxCell>
        </UserObject>
        <mxCell id="-Rc1ZKmh6QWSi9Eiux85-36" style="vsdxID=7689;fillColor=none;gradientColor=none;strokeColor=none;spacingTop=-3;spacingBottom=-3;spacingLeft=-3;spacingRight=-3;points=[];labelBackgroundColor=none;rounded=0;html=1;whiteSpace=wrap;" vertex="1" parent="-Rc1ZKmh6QWSi9Eiux85-35">
          <mxGeometry width="51" height="51" as="geometry" />
        </mxCell>
        <mxCell id="-Rc1ZKmh6QWSi9Eiux85-37" style="vsdxID=7690;fillColor=#a0a1a2;gradientColor=none;shape=stencil(pZTdDsIgDIWfhlvS0cTN6znfY8mYI86xsPn39g6JYUpEwLu2nANfgZRgOXX1yAmDaVbyyK+imTuCO8KYGDquxLxEBCuCZSsVPyh5HhqTj7VW6ugkL3qHm/GBdjC4mww3NMuelb0R92JYiVlO8+I/wwZpsf1ugHSxg+JrFGKYo8S2EsAcJYbQ5nJGdRrOHG3IwHMnkCp1MN6btA8cyG2/T7LBS+8CRcp/NGyXA/lfxyfKvfQuTKTcgVkCO5Va0fdmqK3XP6fYUjITEKsH);strokeColor=none;strokeWidth=17;spacingTop=-3;spacingBottom=-3;spacingLeft=-3;spacingRight=-3;points=[];labelBackgroundColor=none;rounded=0;html=1;whiteSpace=wrap;" vertex="1" parent="-Rc1ZKmh6QWSi9Eiux85-36">
          <mxGeometry y="12" width="38" height="38" as="geometry" />
        </mxCell>
        <mxCell id="-Rc1ZKmh6QWSi9Eiux85-38" style="vsdxID=7691;fillColor=#0072c6;gradientColor=none;shape=stencil(fZLdDoMgDIWfhlsDbRbjtXPvYSZOMqcGdcO3n6T+ABrvWvgO7SllmPZV3kkGvB90+5Y/VQwVwzsDUE0ltRrmiGHGMC1bLV+6HZuC8i63pI0+7de+YEh341YCfKKUsgeRz1ETKugSIOJiwYXLcwNeOsFBYNAn0Cu/FKxV47Tmdyb4BXq7ZEMfcRwlie9jVWxOtoPViyNavezMqZuw7I4f52mOVSZ/pgYDq3jyY5dT8cg52FeiVHVNG+Xehys0H9H6YfYH);strokeColor=none;strokeWidth=17;spacingTop=-3;spacingBottom=-3;spacingLeft=-3;spacingRight=-3;points=[];labelBackgroundColor=none;rounded=0;html=1;whiteSpace=wrap;" vertex="1" parent="-Rc1ZKmh6QWSi9Eiux85-36">
          <mxGeometry x="14" width="37" height="37" as="geometry" />
        </mxCell>
        <mxCell id="-Rc1ZKmh6QWSi9Eiux85-39" style="vsdxID=7692;fillColor=#FFFFFF;gradientColor=none;shape=stencil(pZPdDoMgDIWfhlsCRZF7597DRJxkTgzqft5+MrJMZoZT79rynea0pIilXZW3EgHpeqPP8qaKvkLsgABUU0mj+jFCLEMsLbWRJ6OHpnB5m1vSRhd9tR3uTkesAsjDZcAxT16Vo4Nr1UxgmmAe7xNQQn7jZCu6YGMB9jcSUUyFJ4jC3WOBBewTBEedG1qJL9j5Q+BvSABm/q8G7Ly9bkCDY85NrMS3w2PwOadS1bW7xun79/mNJXe6LHsC);strokeColor=none;strokeWidth=17;spacingTop=-3;spacingBottom=-3;spacingLeft=-3;spacingRight=-3;points=[];labelBackgroundColor=none;rounded=0;html=1;whiteSpace=wrap;" vertex="1" parent="-Rc1ZKmh6QWSi9Eiux85-36">
          <mxGeometry x="21" y="11" width="18" height="16" as="geometry" />
        </mxCell>
        <UserObject label="" tags="Background" id="-Rc1ZKmh6QWSi9Eiux85-40">
          <mxCell style="vsdxID=7187;edgeStyle=none;startArrow=classic;endArrow=none;startSize=2;endSize=2;strokeWidth=3;strokeColor=#7f7f7f;spacingTop=0;spacingBottom=0;spacingLeft=0;spacingRight=0;verticalAlign=middle;html=1;labelBackgroundColor=#FFFFFF;rounded=0;" edge="1" parent="1">
            <mxGeometry relative="1" as="geometry">
              <Array as="points" />
              <mxPoint x="277" y="1448" as="sourcePoint" />
              <mxPoint x="237" y="1448" as="targetPoint" />
            </mxGeometry>
          </mxCell>
        </UserObject>
        <UserObject label="" tags="Background" id="-Rc1ZKmh6QWSi9Eiux85-41">
          <mxCell style="vsdxID=7247;edgeStyle=none;startArrow=classic;endArrow=none;startSize=2;endSize=2;strokeWidth=3;strokeColor=#7f7f7f;spacingTop=0;spacingBottom=0;spacingLeft=0;spacingRight=0;verticalAlign=middle;html=1;labelBackgroundColor=#FFFFFF;rounded=0;" edge="1" parent="1">
            <mxGeometry relative="1" as="geometry">
              <Array as="points" />
              <mxPoint x="277" y="1328" as="sourcePoint" />
              <mxPoint x="237" y="1328" as="targetPoint" />
            </mxGeometry>
          </mxCell>
        </UserObject>
        <UserObject label="" tags="Background" id="-Rc1ZKmh6QWSi9Eiux85-42">
          <mxCell style="vsdxID=7250;edgeStyle=none;startArrow=classic;endArrow=none;startSize=2;endSize=2;strokeWidth=3;strokeColor=#7f7f7f;spacingTop=0;spacingBottom=0;spacingLeft=0;spacingRight=0;verticalAlign=middle;html=1;labelBackgroundColor=#FFFFFF;rounded=0;" edge="1" parent="1">
            <mxGeometry relative="1" as="geometry">
              <Array as="points" />
              <mxPoint x="437" y="1448" as="sourcePoint" />
              <mxPoint x="397" y="1448" as="targetPoint" />
            </mxGeometry>
          </mxCell>
        </UserObject>
        <UserObject label="" tags="Background" id="-Rc1ZKmh6QWSi9Eiux85-43">
          <mxCell style="vsdxID=7251;edgeStyle=none;startArrow=classic;endArrow=none;startSize=2;endSize=2;strokeWidth=3;strokeColor=#7f7f7f;spacingTop=0;spacingBottom=0;spacingLeft=0;spacingRight=0;verticalAlign=middle;html=1;labelBackgroundColor=#FFFFFF;rounded=0;" edge="1" parent="1">
            <mxGeometry relative="1" as="geometry">
              <Array as="points" />
              <mxPoint x="437" y="1328" as="sourcePoint" />
              <mxPoint x="397" y="1328" as="targetPoint" />
            </mxGeometry>
          </mxCell>
        </UserObject>
      </root>
    </mxGraphModel>
  </diagram>
</mxfile>
